<svg width="32" height="32" viewBox="0 0 32 32" fill="none" xmlns="http://www.w3.org/2000/svg">
<rect width="32" height="32" rx="11" fill="url(#paint0_linear_0_1)"/>
<ellipse cx="21.4864" cy="11.8547" rx="3.70512" ry="8.21966" transform="rotate(31 21.4864 11.8547)" fill="#00FF55"/>
<ellipse cx="19.755" cy="12.5594" rx="2.71436" ry="8.22082" transform="rotate(31 19.755 12.5594)" fill="#00B53C"/>
<ellipse cx="18.7916" cy="13.3911" rx="0.279671" ry="4.9548" transform="rotate(31 18.7916 13.3911)" fill="#00FF55"/>
<ellipse cx="3.70512" cy="6.29625" rx="3.70512" ry="6.29625" transform="matrix(0.406737 -0.913546 -0.913546 -0.406737 15.5038 18.8914)" fill="#00FF55"/>
<ellipse cx="3.11476" cy="5.54268" rx="3.11476" ry="5.54268" transform="matrix(0.406737 -0.913546 -0.913546 -0.406737 15.7708 19.2917)" fill="#00B53C"/>
<ellipse cx="0.159361" cy="4.03782" rx="0.159361" ry="4.03782" transform="matrix(0.544639 -0.838671 -0.838671 -0.544639 15.7728 17.1857)" fill="#00FF55"/>
<ellipse cx="4.62066" cy="1.48312" rx="4.62066" ry="1.48312" transform="matrix(0.97437 0.224951 0.224951 -0.97437 18 23.8902)" fill="black" fill-opacity="0.19"/>
<ellipse cx="5.08155" cy="4.07606" rx="5.08155" ry="4.07606" transform="matrix(0.819152 0.573576 0.573576 -0.819152 16.8077 20.1602)" fill="white"/>
<ellipse cx="4.93239" cy="3.99334" rx="4.93239" ry="3.99334" transform="matrix(0.819152 0.573576 0.573576 -0.819152 17.0922 20.7076)" fill="#FF3333"/>
<ellipse cx="1.22124" cy="1.73275" rx="1.22124" ry="1.73275" transform="matrix(0.819152 0.573576 0.573576 -0.819152 24.4454 22.662)" fill="#500000"/>
<ellipse cx="8.83586" cy="23.4845" rx="4.62066" ry="1.48312" transform="rotate(167 8.83586 23.4845)" fill="black" fill-opacity="0.19"/>
<ellipse cx="8.35388" cy="19.7449" rx="5.08155" ry="4.07606" transform="rotate(167 8.35388 19.7449)" fill="white"/>
<ellipse cx="8.04903" cy="20.1928" rx="4.9324" ry="3.99334" transform="rotate(167 8.04903 20.1928)" fill="#FF3333"/>
<ellipse cx="4.62371" cy="20.6182" rx="1.22124" ry="1.73275" transform="rotate(167 4.62371 20.6182)" fill="#500000"/>
<ellipse cx="5.1158" cy="3.56471" rx="5.1158" ry="3.56471" transform="matrix(-0.0486523 0.998816 -0.995941 -0.0900036 19.6508 14.8229)" fill="black" fill-opacity="0.19"/>
<ellipse cx="5.77024" cy="4.81741" rx="5.77024" ry="4.81741" transform="matrix(-0.0486523 0.998816 -0.995941 -0.0900036 20.4011 13.0603)" fill="white"/>
<ellipse cx="5.60087" cy="4.71965" rx="5.60087" ry="4.71965" transform="matrix(-0.0486523 0.998816 -0.995941 -0.0900036 20.7066 13.711)" fill="#FF3333"/>
<ellipse cx="1.38675" cy="2.0479" rx="1.38675" ry="2.0479" transform="matrix(-0.0486523 0.998816 -0.995941 -0.0900036 17.2319 21.5356)" fill="#500000"/>
<circle cx="19" cy="8" r="3" fill="#9FFFB4"/>
<path d="M21.3904 6.18721C21.7963 6.72256 22.0109 7.3787 21.9996 8.05049C21.9883 8.72227 21.7518 9.37082 21.328 9.8922C20.9042 10.4136 20.3177 10.7776 19.6624 10.926C19.0071 11.0743 18.3209 10.9984 17.7139 10.7104L17.746 10.6428C18.3379 10.9237 19.0069 10.9977 19.6459 10.8531C20.2849 10.7084 20.8568 10.3535 21.27 9.84506C21.6832 9.33667 21.9138 8.70428 21.9248 8.04923C21.9359 7.39418 21.7267 6.75438 21.3308 6.23238L21.3904 6.18721Z" fill="#00B53C"/>
<circle cx="9" cy="7" r="3" fill="#9FFFB4"/>
<path d="M11.6993 8.30917C11.4899 8.74096 11.1799 9.1162 10.7954 9.40341C10.411 9.69062 9.96323 9.8814 9.48977 9.95975C9.01632 10.0381 8.53097 10.0017 8.07449 9.85367C7.618 9.70562 7.20369 9.45022 6.86634 9.10891L6.89445 9.08112C7.22736 9.41794 7.63621 9.66997 8.08668 9.81607C8.53715 9.96217 9.0161 9.99807 9.48332 9.92076C9.95054 9.84344 10.3924 9.65517 10.7718 9.37175C11.1512 9.08832 11.457 8.71802 11.6637 8.29192L11.6993 8.30917Z" fill="#00B53C"/>
<circle cx="13.5" cy="8.5" r="2.5" fill="#9FFFB4"/>
<path d="M14.696 10.6953C14.3612 10.8778 13.989 10.9812 13.608 10.9977C13.227 11.0141 12.8472 10.9432 12.4979 10.7904C12.1485 10.6375 11.8387 10.4067 11.5922 10.1157C11.3458 9.82467 11.1692 9.48113 11.0759 9.11135L11.1052 9.10395C11.1973 9.46926 11.3718 9.80866 11.6153 10.0962C11.8588 10.3837 12.1648 10.6116 12.51 10.7627C12.8551 10.9137 13.2303 10.9837 13.6067 10.9675C13.9831 10.9512 14.3507 10.849 14.6816 10.6688L14.696 10.6953Z" fill="#00B53C"/>
<defs>
<linearGradient id="paint0_linear_0_1" x1="16" y1="0" x2="16" y2="32" gradientUnits="userSpaceOnUse">
<stop offset="0.533654" stop-color="#9FFFB4"/>
<stop offset="1" stop-color="#60996C"/>
</linearGradient>
</defs>
</svg>
